<?xml version="1.0" encoding="UTF-8"?>
<!DOCTYPE svg PUBLIC "-//W3C//DTD SVG 1.1//EN" "http://www.w3.org/Graphics/SVG/1.1/DTD/svg11.dtd">
<!-- Creator: CorelDRAW X6 -->
<svg xmlns="http://www.w3.org/2000/svg" xml:space="preserve" width="224.067mm" height="60.4455mm" version="1.1" style="shape-rendering:geometricPrecision; text-rendering:geometricPrecision; image-rendering:optimizeQuality; fill-rule:evenodd; clip-rule:evenodd"
viewBox="0 0 21969 5926"
 xmlns:xlink="http://www.w3.org/1999/xlink">
 <defs>
  <style type="text/css">
   <![CDATA[
    .fil0 {fill:#019A44}
    .fil1 {fill:#1D2089}
    .fil2 {fill:#E60211}
    .fil3 {fill:black;fill-rule:nonzero}
    .fil5 {fill:black;fill-rule:nonzero}
    .fil4 {fill:#2F4A97;fill-rule:nonzero}
   ]]>
  </style>
 </defs>
 <g id="图层_x0020_1">
  <metadata id="CorelCorpID_0Corel-Layer"/>
  <g id="_735014032">
   <g id="__x0023_019a44ff">
    <path class="fil0" d="M1828 117c452,-173 978,-158 1410,66 -214,77 -428,160 -617,289 -189,124 -357,302 -414,526 -59,225 0,461 78,674 32,95 76,186 102,283 -6,36 -41,58 -61,86 -80,103 -160,206 -242,307 -35,-52 -55,-113 -87,-166 -212,-369 -469,-719 -602,-1128 -59,-191 -86,-410 6,-595 83,-171 254,-276 426,-342z"/>
    <path class="fil0" d="M2540 2117c116,-120 256,-229 423,-265 169,-35 346,20 482,121 109,78 201,178 273,290 -175,-4 -360,-27 -523,49 -153,75 -257,215 -362,345 -18,29 -60,60 -36,97 111,255 249,498 348,759 72,194 135,396 129,605 1,144 -45,291 -140,401 -157,180 -399,249 -627,283 -314,32 -622,-59 -919,-150 158,-61 311,-138 452,-233 123,-85 238,-193 293,-336 119,-293 80,-619 11,-919 -93,44 -187,94 -292,101 -145,17 -292,-14 -423,-77 -193,-97 -356,-245 -487,-416 192,29 386,72 581,46 137,-17 267,-80 368,-174 171,-158 295,-357 450,-529z"/>
   </g>
   <g id="__x0023_1d2089ff">
    <path class="fil1" d="M1277 307c43,-22 84,-49 132,-56 -171,109 -274,313 -269,515 -1,138 45,269 88,398 -99,72 -183,163 -251,264 -96,148 -158,314 -213,481 -117,367 -101,774 41,1132 142,362 412,672 751,861 165,94 346,152 531,193 -158,256 -445,389 -721,477 -345,-157 -646,-406 -876,-707 -271,-355 -440,-787 -481,-1231 -39,-415 35,-840 210,-1218 216,-473 595,-869 1056,-1108z"/>
    <path class="fil1" d="M2606 704c218,-224 515,-348 808,-442 513,242 932,675 1159,1195 227,511 266,1103 104,1639 -87,289 -216,570 -404,808 -252,322 -609,543 -981,699 108,-89 188,-214 212,-353 34,-174 4,-352 -43,-521 102,-87 203,-177 289,-280 134,-167 216,-368 276,-572 108,-376 78,-788 -81,-1146 -183,-422 -546,-762 -980,-915 -119,-40 -237,-84 -359,-113z"/>
   </g>
   <g id="__x0023_e60211ff">
    <path class="fil2" d="M2720 1288c49,-63 94,-129 142,-193 35,73 54,153 93,224 61,46 125,88 184,137 -73,28 -146,57 -219,84 -46,65 -96,127 -138,194 -33,-69 -54,-143 -86,-213 -51,-63 -138,-89 -186,-154 71,-24 140,-54 210,-79z"/>
    <path class="fil2" d="M3398 1496c45,-32 97,-52 142,-85 1,55 0,110 -9,163 22,59 61,108 85,165 -55,-2 -110,-9 -166,-9 -55,21 -102,59 -156,84 -2,-58 6,-116 4,-174 -25,-51 -56,-99 -83,-148 61,-2 121,6 182,4z"/>
    <path class="fil2" d="M3690 1844c34,13 67,31 101,45 37,3 74,-3 111,-4 -11,38 -37,70 -43,109 3,34 8,69 9,104 -43,-21 -87,-56 -138,-46 -26,2 -51,5 -77,6 15,-35 35,-68 48,-104 -1,-37 -9,-73 -12,-109z"/>
   </g>
  </g>
  <path class="fil3" d="M10932 2507c-65,33 -178,199 -339,500 -160,301 -269,474 -326,519 -37,4 -81,-23 -134,-80 -53,-57 -85,-126 -98,-207 -37,16 -74,33 -113,49 -38,16 -80,35 -124,55 -16,407 -42,768 -76,1083 -35,316 -90,617 -168,906l-116 0c0,-114 7,-391 19,-833 12,-441 20,-798 24,-1071 -24,4 -59,10 -101,18 -43,8 -72,15 -89,19 -8,45 -29,72 -64,82 -34,11 -80,-11 -137,-64 -41,-37 -88,-100 -141,-192 -53,-91 -107,-191 -162,-299 -55,-108 -102,-206 -143,-293 -41,-88 -75,-162 -103,-223 -24,-53 -39,-110 -43,-171 -4,-61 16,-88 61,-80 28,4 66,12 113,24 46,12 90,28 131,49 49,-20 134,-49 256,-85 122,-37 263,-75 421,-116 -12,-382 -31,-665 -55,-848 -24,-183 -67,-278 -128,-286 -33,-8 -57,-24 -73,-49 -16,-24 -22,-51 -15,-80 6,-28 24,-50 52,-63 28,-15 69,-15 122,-3 130,28 279,81 448,159 168,77 235,151 198,220 -45,73 -88,188 -129,345 -41,156 -65,314 -73,473 -4,8 -5,18 -3,30 2,12 2,24 -2,37 57,-16 120,-27 189,-33 69,-6 137,-9 202,-9 20,-4 65,-9 134,-15 69,-6 122,1 159,21 61,33 159,118 293,256 134,138 179,224 134,256zm-630 -207c0,-28 -22,-59 -64,-91 -43,-33 -125,-39 -247,-19 -20,0 -50,3 -89,10 -38,6 -66,13 -82,21 -4,24 -7,64 -9,119 -2,55 -3,97 -3,125 16,0 31,1 43,3 12,2 24,5 37,9 33,8 63,44 94,107 30,63 21,105 -28,125 -12,0 -33,11 -61,33 -28,23 -59,50 -91,82l-7 207c33,-12 56,-22 70,-30 15,-8 26,-15 34,-19 49,-41 79,-66 91,-76 12,-11 33,-7 61,9 20,12 33,20 40,24 6,4 20,14 40,30 33,-114 69,-250 110,-408 41,-159 61,-246 61,-263zm-810 574l0 -91c-16,0 -43,6 -80,18 -37,12 -61,20 -73,24 -28,8 -58,11 -89,7 -30,-4 -55,-13 -73,-28 -18,-14 -22,-33 -12,-55 11,-23 36,-46 76,-71 20,-16 53,-37 98,-61 45,-24 96,-46 153,-67 -4,-37 -7,-73 -7,-110 0,-37 0,-81 0,-134 -122,33 -232,72 -329,119 -98,47 -175,94 -232,143 16,65 52,159 107,281 55,122 101,226 137,312 57,-53 113,-102 168,-150 55,-46 107,-93 156,-137zm-7 268c0,0 -1,-17 -3,-51 -2,-35 2,-63 10,-83 -28,12 -59,31 -89,55 -31,24 -59,48 -85,70 -27,23 -48,41 -64,55 -16,14 -18,21 -6,21 20,0 55,-8 107,-24 50,-16 94,-31 131,-43zm-1196 -1684c-118,24 -246,76 -384,156 -138,79 -277,168 -415,265l-37 -61c94,-81 189,-170 286,-265 98,-96 138,-148 122,-156 -94,-77 -144,-146 -152,-207 -8,-61 45,-95 159,-103 33,-4 80,10 143,42 63,33 123,73 180,122 57,49 97,93 119,132 23,38 15,63 -21,76zm110 1019c-65,106 -133,204 -204,296 -72,91 -147,181 -229,271 -41,171 -51,425 -31,763 20,338 33,547 37,628 12,102 -3,181 -46,235 -43,55 -86,60 -131,15 -69,-94 -154,-249 -254,-467 -99,-217 -133,-398 -100,-540 20,41 51,106 94,195 42,89 70,145 82,165 12,20 21,33 28,40 6,6 17,17 33,33 -12,-102 -17,-247 -15,-436 2,-190 3,-308 3,-357 -138,118 -257,219 -357,302 -99,84 -194,172 -283,265 -16,8 -42,-1 -76,-27 -35,-27 -68,-63 -101,-107 -33,-45 -54,-88 -64,-131 -10,-42 -1,-74 28,-94 110,-98 216,-207 317,-329 102,-122 195,-246 281,-373 49,-77 94,-149 134,-216 41,-67 65,-111 73,-131 -24,8 -48,16 -70,24 -23,8 -54,18 -94,30 -89,28 -218,85 -385,168 -167,83 -277,129 -329,137 -20,0 -45,-9 -73,-27 -28,-19 -54,-39 -76,-61 -22,-23 -34,-45 -37,-68 -2,-22 14,-37 46,-46 49,-16 233,-98 555,-244 321,-146 515,-234 580,-263 12,-12 45,-41 98,-85 53,-45 94,-63 122,-55 49,12 120,57 213,134 94,77 126,132 98,164 -49,45 -94,97 -137,156 -42,59 -68,123 -76,192 20,-20 65,-54 134,-101 69,-46 122,-86 159,-119l55 61z"/>
  <path id="1" class="fil3" d="M15240 1958c-12,4 -89,39 -232,104 -142,65 -264,124 -366,177 -138,69 -268,140 -390,211 -122,72 -230,133 -324,186l-67 -73c45,-28 120,-72 229,-129 107,-57 188,-102 241,-134 53,-33 86,-59 101,-79 14,-20 -11,-27 -76,-19 -53,0 -102,-11 -146,-33 -45,-22 -82,-49 -113,-79 -30,-31 -47,-59 -51,-85 -4,-27 10,-44 42,-52 12,0 66,-24 162,-70 95,-47 181,-88 256,-122 75,-35 166,-68 272,-98 106,-31 207,-46 305,-46 98,24 179,72 244,141 65,69 37,136 -85,201zm-1464 -513c-183,106 -466,225 -848,357 -382,133 -612,188 -689,168l-31 -61c167,-37 379,-134 638,-293 258,-159 414,-268 467,-329 16,-24 39,-59 70,-107 30,-46 66,-64 107,-52 89,33 181,81 275,144 94,63 98,120 12,173zm1411 1654c0,61 -3,309 -9,744 -7,435 -11,675 -15,720 -16,94 -54,211 -113,351 -59,141 -111,188 -156,144 -24,-25 -89,-87 -192,-186 -104,-100 -181,-172 -229,-217 -114,-110 -215,-207 -302,-293 -88,-85 -154,-191 -198,-317 142,94 256,171 342,232 85,61 202,81 348,61 0,-85 -6,-297 -15,-635 -11,-338 -15,-517 -15,-537 0,-45 -8,-83 -24,-116 -16,-33 -38,-72 -67,-116 -12,-20 -24,-43 -37,-70 -12,-26 -19,-52 -19,-76 -171,57 -322,118 -455,183 -132,65 -222,124 -271,177 -41,45 -91,71 -150,79 -59,8 -117,-8 -174,-49 -89,-61 -151,-122 -183,-183 -33,-61 7,-95 116,-103 53,12 128,4 225,-24 98,-28 210,-68 336,-116 199,-85 516,-177 949,-274 434,-98 823,-129 1169,-92 118,33 212,75 283,125 72,51 59,109 -39,174 -24,0 -209,-15 -552,-43 -344,-28 -591,-26 -742,7 -53,8 -106,18 -159,30 -54,12 -104,28 -153,49 89,37 195,101 317,193 123,91 184,151 184,180zm-1753 -873c-20,28 -77,120 -171,272 -94,153 -155,253 -183,302 28,53 55,107 79,162 24,55 37,93 37,113 0,16 -16,228 -49,635 -33,407 -49,616 -49,628 0,33 -24,59 -73,76 -49,19 -95,5 -140,-40 -41,-49 -69,-123 -85,-222 -16,-100 -12,-198 12,-296 12,-73 23,-182 33,-326 10,-145 15,-272 15,-382 -12,12 -31,34 -55,67 -24,33 -41,55 -49,68 -33,33 -122,131 -268,296 -146,164 -228,251 -244,259 -24,8 -49,15 -73,22 -24,6 -46,6 -67,0 -20,-7 -37,-23 -49,-49 -12,-27 -19,-68 -19,-125l68 -61c20,8 34,13 42,15 8,2 16,1 24,-3 8,-4 21,-15 40,-31 18,-16 46,-42 82,-79 163,-191 316,-428 460,-711 145,-282 229,-508 254,-674 0,-102 2,-172 9,-210 6,-39 41,-50 107,-34 85,20 170,64 253,132 84,67 103,133 59,198z"/>
  <path id="2" class="fil3" d="M20187 3038c0,-163 -4,-317 -12,-464 -8,-146 -16,-256 -24,-329 -37,-4 -89,-1 -159,9 -69,11 -138,25 -207,46 12,12 33,36 61,71 28,34 49,62 61,82 24,-8 52,-7 82,3 31,10 57,26 80,49 22,22 34,49 37,79 2,31 -9,60 -33,89 -24,16 -51,37 -80,64 -28,26 -57,55 -85,88l-18 159c12,-8 27,-17 46,-27 18,-11 32,-18 40,-22 33,-33 63,-46 94,-39 30,6 58,33 82,82 8,12 15,22 19,30 4,8 10,19 18,31zm519 1033c0,81 -14,144 -40,186 -27,43 -66,54 -119,33 -57,-24 -133,-75 -229,-152 -95,-77 -157,-149 -185,-214 -20,-45 -61,-103 -122,-173 -61,-72 -108,-140 -141,-205l43 -85c45,53 87,91 128,113 41,23 85,41 134,58 0,-53 2,-118 7,-195 4,-77 6,-156 6,-238 -8,0 -15,1 -21,3 -7,2 -13,5 -21,9 -28,4 -76,16 -141,37 -65,20 -114,37 -146,49 -12,134 -25,284 -40,448 -14,165 -21,249 -21,253 0,12 -9,23 -28,31 -18,8 -38,12 -61,12 -22,0 -41,-7 -55,-21 -15,-15 -20,-32 -15,-52 0,-49 -1,-133 -3,-253 -2,-120 -2,-239 -2,-357 -8,4 -23,9 -43,15 -20,6 -33,9 -37,9 -16,8 -37,3 -64,-15 -26,-18 -51,-44 -76,-76 -24,-33 -41,-63 -49,-91 -8,-28 -2,-49 18,-61 28,-24 66,-59 113,-104 46,-45 86,-87 119,-128l0 -49c0,0 -11,1 -33,3 -23,2 -44,2 -64,2 -33,0 -59,-4 -79,-12 -20,-8 -34,-21 -40,-39 -7,-19 -3,-39 9,-61 12,-23 35,-44 68,-64 8,-12 21,-24 39,-33 19,-11 50,-30 95,-59 4,-28 2,-63 -7,-107 -8,-42 -20,-82 -37,-119 -57,20 -103,38 -137,55 -34,16 -62,31 -82,43 24,12 41,29 52,52 10,22 15,51 15,88 -8,69 -39,320 -92,751 -53,431 -81,655 -85,671 -12,20 -30,37 -55,49 -24,12 -49,18 -73,18 -24,0 -44,-9 -59,-27 -14,-19 -17,-44 -9,-76 8,-53 17,-268 28,-643 10,-377 13,-642 9,-796 -8,0 -15,-1 -21,-3 -7,-2 -15,-5 -28,-9 -61,-33 -89,-72 -85,-119 4,-47 35,-72 92,-76 20,0 50,-7 91,-21 41,-15 77,-28 110,-40 8,-8 64,-28 168,-58 104,-31 189,-55 254,-71 -24,-16 -81,-50 -168,-103 -87,-53 -141,-84 -161,-92 -41,-16 -71,-37 -89,-61 -19,-24 -24,-47 -19,-70 7,-22 24,-40 52,-52 28,-12 69,-12 122,0 37,4 76,10 119,15 43,7 89,17 137,33 65,-69 134,-157 207,-265 73,-107 126,-200 159,-277 -118,41 -249,89 -394,143 -144,55 -245,113 -302,174 -16,12 -41,41 -76,89 -34,46 -63,68 -88,63 -12,-4 -72,-17 -177,-39 -106,-23 -177,-48 -213,-76 -53,-49 -72,-92 -59,-129 15,-37 48,-53 101,-49 33,4 72,3 116,-2 45,-7 83,-18 116,-34 24,-20 190,-78 497,-173 308,-96 471,-148 491,-156 49,-28 88,-51 116,-70 28,-18 59,-24 91,-15 16,4 66,27 150,68 83,41 135,65 155,73 20,4 40,17 58,40 19,22 31,47 37,76 7,28 3,53 -9,73 -12,20 -33,37 -61,49 -57,12 -122,33 -195,61 -73,28 -116,55 -128,80 -37,49 -89,106 -159,171 -69,65 -151,136 -244,213 24,8 46,20 63,34 19,14 38,31 59,51 12,12 21,23 27,31 7,8 11,18 15,30 16,-4 29,-8 40,-12 10,-4 17,-6 21,-6 24,-16 55,-36 92,-58 37,-23 75,-24 116,-3 20,8 74,42 162,103 87,61 142,96 162,104 37,12 63,49 82,110 18,61 13,110 -15,146 -16,20 -25,66 -28,137 -2,71 -2,123 -2,155 0,12 12,227 37,643 24,417 37,648 37,692zm-1080 -948c0,-12 -1,-31 -3,-55 -2,-24 -2,-42 -2,-55 -20,24 -42,46 -64,67 -23,20 -40,35 -52,43 20,0 43,0 68,0 24,0 42,0 55,0zm-1116 -1562c20,57 23,111 9,164 -15,53 -52,76 -113,68 -49,-4 -111,-25 -186,-64 -75,-38 -131,-72 -168,-101 -49,-41 -71,-88 -67,-143 4,-55 50,-82 140,-82 57,0 130,16 220,49 89,33 145,69 165,110zm3459 3209c-69,4 -201,34 -396,91 -195,57 -354,104 -476,141 -122,37 -250,67 -382,91 -133,24 -233,28 -302,13 -94,-29 -416,-158 -965,-388 -549,-229 -857,-345 -922,-345 -73,-4 -152,15 -235,55 -84,41 -137,75 -162,103 -16,24 -38,49 -67,73 -28,24 -68,31 -116,19 -49,-16 -97,-50 -143,-101 -47,-50 -82,-107 -107,-168 -20,-41 -30,-76 -28,-107 2,-31 10,-55 24,-73 14,-19 33,-28 55,-28 23,0 46,12 71,37 37,33 102,41 195,28 94,-15 203,-40 329,-76 8,-24 35,-80 82,-165 46,-85 70,-152 70,-201 0,-65 -53,-139 -159,-223 -106,-83 -164,-139 -177,-168 -33,-61 -60,-146 -83,-253 -22,-108 -31,-178 -27,-211 0,-20 -7,-37 -22,-49 -14,-12 -29,-19 -46,-19 -20,-8 -46,-9 -76,-2 -30,6 -70,13 -119,21 -33,0 -59,-7 -79,-21 -20,-15 -35,-33 -43,-55 -8,-22 -10,-44 -6,-64 4,-20 18,-34 42,-42 53,-37 137,-80 251,-129 114,-49 189,-69 225,-61 57,8 124,37 202,85 77,49 116,98 116,146 0,28 -18,61 -55,98 -37,37 -59,72 -68,104 -16,41 -22,111 -18,211 4,99 18,159 42,180 24,24 110,87 257,189 146,102 222,194 226,275 0,57 -20,111 -58,162 -39,50 -89,108 -150,173 131,33 317,87 559,162 242,76 426,137 552,186 268,94 633,154 1093,180 460,27 805,33 1037,21l55 104z"/>
  <path class="fil4" d="M1010 5908c-1,3 -2,5 -4,7 -2,2 -4,3 -8,4 -3,1 -7,2 -11,2 -4,0 -9,1 -14,1 -5,0 -10,0 -14,-1 -4,0 -8,-1 -11,-2 -3,-1 -6,-2 -8,-4 -2,-2 -3,-4 -4,-7l-139 -509 -1 0 -127 509c-1,3 -2,5 -3,7 -2,2 -4,3 -7,4 -3,1 -6,2 -10,2 -4,0 -9,1 -15,1 -6,0 -11,0 -16,-1 -4,0 -8,-1 -11,-2 -3,-1 -6,-2 -8,-4 -2,-2 -3,-4 -4,-7l-166 -590c-2,-5 -2,-9 -2,-12 0,-3 1,-5 3,-7 2,-1 5,-3 9,-3 4,0 10,-1 16,-1 7,0 12,0 16,1 4,0 7,1 9,2 2,1 4,2 4,4 1,2 1,4 2,6l147 544 0 0 135 -544c0,-2 1,-4 2,-6 1,-2 2,-3 5,-4 2,-1 5,-2 9,-2 4,0 10,-1 16,-1 5,0 9,0 13,1 3,0 6,1 8,2 2,1 3,2 4,4 1,2 2,4 2,6l148 544 1 0 143 -544c1,-2 1,-4 2,-6 1,-2 2,-3 4,-4 2,-1 5,-2 9,-2 4,0 9,-1 15,-1 7,0 12,0 16,1 4,1 7,2 9,3 2,2 3,4 3,7 0,3 0,7 -2,12l-166 590z"/>
  <path id="1" class="fil4" d="M1429 5909c0,2 0,4 -1,5 -1,2 -2,3 -4,4 -2,1 -5,2 -9,2 -4,1 -8,1 -13,1 -5,0 -10,0 -13,-1 -4,-1 -7,-1 -9,-2 -2,-1 -4,-2 -4,-4 -1,-2 -1,-3 -1,-5l0 -601c0,-2 0,-4 2,-5 1,-2 3,-3 5,-4 2,-1 5,-2 9,-2 3,-1 8,-1 13,-1 5,0 10,0 13,1 4,1 6,1 9,2 2,1 4,2 4,4 1,2 1,3 1,5l0 601z"/>
  <path id="2" class="fil4" d="M1975 5325c0,4 0,8 -1,11 -1,3 -2,6 -3,8 -1,2 -3,4 -5,5 -2,1 -4,2 -6,2l-227 0 0 235 215 0c2,0 4,0 6,1 2,1 3,2 5,4 1,2 2,4 3,8 1,3 1,7 1,12 0,4 0,8 -1,11 -1,3 -2,6 -3,8 -1,2 -3,4 -5,5 -2,1 -4,2 -6,2l-215 0 0 273c0,2 0,4 -1,5 -1,2 -2,3 -4,4 -2,1 -5,2 -9,2 -4,1 -8,1 -13,1 -5,0 -10,0 -13,-1 -4,-1 -7,-1 -9,-2 -2,-1 -4,-2 -4,-4 -1,-2 -1,-3 -1,-5l0 -580c0,-12 3,-19 9,-24 6,-4 11,-7 17,-7l257 0c2,0 4,0 6,2 2,1 3,3 5,5 1,2 2,5 3,8 1,3 1,7 1,12z"/>
  <path id="3" class="fil4" d="M2238 5909c0,2 0,4 -1,5 -1,2 -2,3 -4,4 -2,1 -5,2 -9,2 -4,1 -8,1 -13,1 -5,0 -10,0 -13,-1 -4,-1 -7,-1 -9,-2 -2,-1 -4,-2 -4,-4 -1,-2 -1,-3 -1,-5l0 -601c0,-2 0,-4 2,-5 1,-2 3,-3 5,-4 2,-1 5,-2 9,-2 3,-1 8,-1 13,-1 5,0 10,0 13,1 4,1 6,1 9,2 2,1 4,2 4,4 1,2 1,3 1,5l0 601z"/>
  <path id="4" class="fil5" d="M2746 5659c0,39 -3,75 -9,107 -6,32 -15,60 -29,84 -14,24 -31,42 -53,55 -22,13 -49,20 -81,20 -29,0 -54,-6 -75,-17 -21,-11 -37,-28 -50,-51 -13,-22 -22,-50 -28,-83 -6,-33 -9,-71 -9,-114 0,-39 3,-74 9,-107 6,-33 15,-61 29,-84 13,-24 31,-42 53,-55 22,-13 49,-20 81,-20 29,0 54,6 75,17 20,11 37,28 50,51 13,22 22,50 28,83 6,33 9,71 9,114zm-49 4c0,-26 -1,-50 -3,-72 -2,-21 -5,-40 -9,-57 -4,-17 -9,-31 -15,-44 -6,-12 -14,-22 -22,-31 -9,-8 -18,-14 -30,-18 -11,-4 -23,-6 -37,-6 -25,0 -45,6 -60,19 -15,12 -27,29 -36,49 -9,20 -15,44 -18,70 -3,26 -5,54 -5,82 0,39 2,73 6,102 4,29 11,52 20,71 9,18 21,32 36,41 15,9 32,13 53,13 17,0 31,-3 43,-8 12,-6 23,-14 32,-24 9,-10 16,-22 22,-36 6,-14 10,-29 14,-45 3,-16 6,-33 7,-51 1,-18 2,-37 2,-55z"/>
  <path id="5" class="fil5" d="M3157 5899c0,4 0,7 -1,9 -1,3 -2,5 -3,6 -1,2 -3,3 -4,3 -2,1 -3,1 -5,1l-248 0c-2,0 -3,0 -4,-1 -1,-1 -3,-2 -4,-3 -1,-2 -2,-4 -3,-6 -1,-3 -1,-6 -1,-9 0,-3 0,-6 1,-9 1,-3 2,-5 3,-7 1,-2 2,-3 4,-4 1,-1 3,-1 5,-1l108 0 0 -425 -103 67c-4,3 -7,4 -10,5 -2,0 -5,0 -6,-2 -1,-1 -2,-4 -3,-7 -1,-3 -1,-7 -1,-11 0,-3 0,-6 0,-9 0,-3 1,-5 2,-7 1,-2 2,-3 3,-5 1,-1 3,-3 4,-4l117 -79c1,-1 2,-1 3,-2 1,-1 3,-1 5,-2 2,0 4,-1 6,-1 2,0 4,0 7,0 4,0 8,0 11,1 3,1 5,1 7,2 2,1 3,2 4,3 1,1 1,3 1,4l0 469 93 0c2,0 3,0 5,1 2,1 3,2 4,4 1,2 2,4 3,7 1,3 1,6 1,9z"/>
  <path id="6" class="fil3" d="M3391 5875c0,19 -3,31 -9,37 -6,6 -16,9 -31,9 -14,0 -24,-3 -30,-9 -6,-6 -9,-18 -9,-37 0,-19 3,-31 9,-37 6,-6 16,-9 31,-9 14,0 24,3 30,9 6,6 8,18 8,37z"/>
  <path id="7" class="fil3" d="M3868 5844c0,4 0,7 0,10 0,3 -1,6 -1,8 -1,2 -1,4 -2,6 -1,2 -4,5 -7,9 -4,4 -11,9 -20,16 -9,7 -20,12 -31,17 -11,5 -24,9 -37,12 -13,3 -27,5 -41,5 -28,0 -53,-5 -75,-15 -22,-10 -40,-25 -55,-45 -15,-20 -26,-44 -34,-72 -8,-29 -12,-62 -12,-99 0,-42 5,-78 14,-108 10,-30 23,-55 39,-74 17,-19 36,-33 58,-43 22,-9 46,-14 71,-14 13,0 26,1 39,4 12,3 24,6 34,11 11,4 20,9 28,15 8,6 14,11 18,15 4,4 6,7 8,9 1,2 2,4 3,7 1,2 1,5 2,8 0,3 0,7 0,11 0,9 -1,16 -4,19 -2,4 -5,6 -8,6 -4,0 -9,-3 -15,-9 -6,-6 -14,-12 -24,-19 -10,-7 -21,-13 -35,-19 -14,-6 -30,-9 -49,-9 -39,0 -69,16 -91,48 -21,32 -32,78 -32,138 0,30 3,57 9,80 6,23 14,42 25,57 11,15 24,26 39,34 15,8 33,11 52,11 18,0 34,-3 48,-9 14,-6 26,-13 36,-20 10,-7 19,-14 26,-20 7,-6 12,-9 15,-9 2,0 3,0 5,2 1,1 2,3 3,5 1,2 2,5 2,9 0,3 1,7 1,12z"/>
  <path id="8" class="fil3" d="M4351 5909c0,2 0,4 -1,5 -1,2 -2,3 -4,4 -2,1 -5,2 -8,2 -4,1 -8,1 -13,1 -6,0 -10,0 -13,-1 -3,-1 -6,-1 -8,-2 -2,-1 -3,-2 -4,-4 -1,-2 -1,-3 -1,-5l0 -257c0,-27 -2,-49 -6,-65 -4,-17 -10,-31 -18,-43 -8,-12 -18,-21 -30,-28 -12,-7 -26,-10 -43,-10 -21,0 -42,8 -62,24 -21,16 -43,39 -66,69l0 311c0,2 0,4 -1,5 -1,2 -2,3 -4,4 -2,1 -5,2 -8,2 -4,1 -8,1 -13,1 -5,0 -9,0 -13,-1 -3,-1 -6,-1 -8,-2 -2,-1 -4,-2 -4,-4 -1,-2 -1,-3 -1,-5l0 -433c0,-2 0,-4 1,-5 1,-2 2,-3 4,-4 2,-1 5,-2 8,-2 3,0 7,-1 13,-1 5,0 9,0 13,1 3,0 6,1 8,2 2,1 3,2 4,4 1,2 1,3 1,5l0 61c24,-28 47,-48 69,-61 23,-13 45,-19 67,-19 27,0 49,5 68,14 18,10 33,23 45,39 11,16 19,35 24,57 5,22 7,48 7,79l0 263z"/>
 </g>
</svg>
