<?xml version="1.0" encoding="UTF-8"?>
<!DOCTYPE svg PUBLIC "-//W3C//DTD SVG 1.1//EN" "http://www.w3.org/Graphics/SVG/1.1/DTD/svg11.dtd">
<!-- Creator: CorelDRAW X6 -->
<svg xmlns="http://www.w3.org/2000/svg" xml:space="preserve" width="224.714mm" height="61.4447mm" version="1.1" style="shape-rendering:geometricPrecision; text-rendering:geometricPrecision; image-rendering:optimizeQuality; fill-rule:evenodd; clip-rule:evenodd"
viewBox="0 0 21904 5989"
 xmlns:xlink="http://www.w3.org/1999/xlink">
 <defs>
  <style type="text/css">
   <![CDATA[
    .str0 {stroke:#FEFEFE;stroke-width:194.952;stroke-linecap:round;stroke-linejoin:round}
    .fil0 {fill:none}
    .fil1 {fill:#019A44}
    .fil2 {fill:#1D2089}
    .fil3 {fill:#E60211}
    .fil4 {fill:black;fill-rule:nonzero}
    .fil5 {fill:#FEFEFE;fill-rule:nonzero}
   ]]>
  </style>
 </defs>
 <g id="图层_x0020_1">
  <metadata id="CorelCorpID_0Corel-Layer"/>
  <g id="_233268800">
   <g id="__x0023_019a44ff">
    <g>
     <path class="fil0 str0" d="M1915 214c449,-172 973,-157 1402,65 -213,76 -426,159 -613,287 -188,124 -355,300 -411,523 -59,224 0,458 77,670 32,94 75,185 102,281 -6,36 -40,57 -60,86 -79,103 -159,205 -241,305 -35,-52 -54,-112 -87,-165 -210,-367 -466,-715 -598,-1121 -59,-190 -86,-407 6,-592 83,-170 253,-274 423,-340z"/>
     <path id="1" class="fil1" d="M1915 214c449,-172 973,-157 1402,65 -213,76 -426,159 -613,287 -188,124 -355,300 -411,523 -59,224 0,458 77,670 32,94 75,185 102,281 -6,36 -40,57 -60,86 -79,103 -159,205 -241,305 -35,-52 -54,-112 -87,-165 -210,-367 -466,-715 -598,-1121 -59,-190 -86,-407 6,-592 83,-170 253,-274 423,-340z"/>
    </g>
    <g>
     <path class="fil0 str0" d="M2622 2202c116,-119 254,-228 420,-263 168,-35 344,20 479,120 108,77 200,177 272,289 -174,-4 -357,-27 -520,49 -153,74 -256,214 -360,343 -18,29 -60,59 -36,96 110,254 248,495 346,754 71,193 134,394 128,602 1,143 -45,290 -139,399 -156,179 -397,248 -624,281 -312,31 -619,-59 -914,-149 157,-61 309,-137 450,-231 123,-84 237,-192 291,-334 118,-291 79,-616 11,-914 -92,44 -186,93 -290,101 -144,17 -291,-14 -420,-77 -192,-96 -354,-244 -484,-413 191,28 384,72 577,45 136,-17 266,-79 366,-173 170,-157 293,-355 448,-526z"/>
     <path id="1" class="fil1" d="M2622 2202c116,-119 254,-228 420,-263 168,-35 344,20 479,120 108,77 200,177 272,289 -174,-4 -357,-27 -520,49 -153,74 -256,214 -360,343 -18,29 -60,59 -36,96 110,254 248,495 346,754 71,193 134,394 128,602 1,143 -45,290 -139,399 -156,179 -397,248 -624,281 -312,31 -619,-59 -914,-149 157,-61 309,-137 450,-231 123,-84 237,-192 291,-334 118,-291 79,-616 11,-914 -92,44 -186,93 -290,101 -144,17 -291,-14 -420,-77 -192,-96 -354,-244 -484,-413 191,28 384,72 577,45 136,-17 266,-79 366,-173 170,-157 293,-355 448,-526z"/>
    </g>
   </g>
   <g id="__x0023_1d2089ff">
    <g>
     <path class="fil0 str0" d="M1367 403c43,-21 83,-49 132,-56 -170,108 -272,311 -267,512 -1,137 45,267 88,396 -98,72 -182,162 -250,263 -96,147 -158,312 -212,478 -117,365 -101,770 41,1126 141,360 409,668 747,856 164,94 344,151 528,192 -157,254 -442,387 -717,474 -343,-156 -642,-404 -871,-703 -269,-353 -438,-782 -478,-1224 -39,-413 34,-835 209,-1211 215,-470 591,-864 1050,-1102z"/>
     <path id="1" class="fil2" d="M1367 403c43,-21 83,-49 132,-56 -170,108 -272,311 -267,512 -1,137 45,267 88,396 -98,72 -182,162 -250,263 -96,147 -158,312 -212,478 -117,365 -101,770 41,1126 141,360 409,668 747,856 164,94 344,151 528,192 -157,254 -442,387 -717,474 -343,-156 -642,-404 -871,-703 -269,-353 -438,-782 -478,-1224 -39,-413 34,-835 209,-1211 215,-470 591,-864 1050,-1102z"/>
    </g>
    <g>
     <path class="fil0 str0" d="M2688 797c217,-222 512,-346 803,-439 511,241 927,671 1153,1188 225,508 265,1097 103,1629 -87,288 -215,566 -402,803 -250,320 -606,539 -976,695 107,-89 187,-213 211,-351 33,-173 4,-350 -43,-518 101,-87 202,-176 288,-279 133,-166 215,-366 275,-568 107,-374 77,-784 -81,-1139 -182,-420 -543,-757 -974,-910 -118,-40 -236,-83 -357,-113z"/>
     <path id="1" class="fil2" d="M2688 797c217,-222 512,-346 803,-439 511,241 927,671 1153,1188 225,508 265,1097 103,1629 -87,288 -215,566 -402,803 -250,320 -606,539 -976,695 107,-89 187,-213 211,-351 33,-173 4,-350 -43,-518 101,-87 202,-176 288,-279 133,-166 215,-366 275,-568 107,-374 77,-784 -81,-1139 -182,-420 -543,-757 -974,-910 -118,-40 -236,-83 -357,-113z"/>
    </g>
   </g>
   <g id="__x0023_e60211ff">
    <g>
     <path class="fil0 str0" d="M2802 1378c49,-62 93,-128 141,-192 34,73 54,152 92,223 61,46 125,87 183,136 -73,27 -145,56 -218,84 -46,64 -95,126 -137,193 -32,-69 -54,-142 -85,-211 -51,-63 -137,-89 -185,-153 71,-24 139,-54 209,-79z"/>
     <path id="1" class="fil3" d="M2802 1378c49,-62 93,-128 141,-192 34,73 54,152 92,223 61,46 125,87 183,136 -73,27 -145,56 -218,84 -46,64 -95,126 -137,193 -32,-69 -54,-142 -85,-211 -51,-63 -137,-89 -185,-153 71,-24 139,-54 209,-79z"/>
    </g>
    <g>
     <path class="fil0 str0" d="M3476 1584c45,-32 96,-52 141,-84 1,54 0,109 -9,163 21,58 60,108 84,164 -55,-2 -110,-9 -165,-9 -55,21 -102,59 -155,83 -2,-58 6,-115 4,-173 -25,-51 -55,-98 -82,-148 60,-2 121,6 181,4z"/>
     <path id="1" class="fil3" d="M3476 1584c45,-32 96,-52 141,-84 1,54 0,109 -9,163 21,58 60,108 84,164 -55,-2 -110,-9 -165,-9 -55,21 -102,59 -155,83 -2,-58 6,-115 4,-173 -25,-51 -55,-98 -82,-148 60,-2 121,6 181,4z"/>
    </g>
    <g>
     <path class="fil0 str0" d="M3766 1931c34,13 66,31 100,44 37,3 74,-3 111,-4 -11,37 -36,70 -43,108 3,34 8,69 9,103 -43,-21 -86,-56 -137,-46 -25,2 -51,5 -76,6 15,-35 35,-68 48,-104 -1,-36 -9,-72 -12,-109z"/>
     <path id="1" class="fil3" d="M3766 1931c34,13 66,31 100,44 37,3 74,-3 111,-4 -11,37 -36,70 -43,108 3,34 8,69 9,103 -43,-21 -86,-56 -137,-46 -25,2 -51,5 -76,6 15,-35 35,-68 48,-104 -1,-36 -9,-72 -12,-109z"/>
    </g>
   </g>
  </g>
  <path class="fil4" d="M10932 2538c-65,32 -177,198 -337,497 -159,299 -268,472 -324,516 -36,4 -81,-23 -133,-79 -53,-57 -85,-125 -97,-206 -36,16 -74,32 -112,49 -38,16 -79,35 -124,55 -16,404 -42,763 -76,1076 -35,314 -90,614 -167,901l-116 0c0,-113 6,-389 19,-828 12,-438 20,-793 24,-1064 -24,4 -58,10 -100,18 -43,8 -72,15 -88,19 -8,44 -29,72 -64,82 -34,11 -79,-11 -136,-64 -40,-36 -87,-99 -140,-191 -53,-91 -106,-190 -161,-297 -54,-108 -102,-205 -142,-291 -40,-87 -74,-161 -103,-222 -24,-53 -39,-109 -43,-170 -4,-61 16,-87 61,-79 28,4 66,12 112,24 46,12 90,28 130,49 49,-20 133,-49 255,-85 121,-36 261,-74 419,-115 -12,-380 -31,-662 -55,-844 -24,-182 -66,-277 -127,-285 -32,-8 -57,-24 -73,-49 -16,-24 -22,-51 -15,-79 6,-28 23,-49 52,-63 28,-15 69,-15 121,-3 129,28 277,81 446,158 167,77 234,150 197,218 -44,73 -87,187 -128,343 -40,155 -65,312 -73,470 -4,8 -5,18 -3,30 2,12 2,24 -2,36 57,-16 119,-27 188,-33 69,-6 136,-9 201,-9 20,-4 65,-9 133,-15 69,-6 121,1 158,21 61,32 158,117 291,255 133,137 178,222 133,255zm-626 -206c0,-28 -22,-58 -64,-91 -43,-32 -125,-39 -246,-19 -20,0 -49,3 -88,10 -38,6 -66,13 -82,21 -4,24 -7,64 -9,118 -2,55 -3,96 -3,125 16,0 31,1 43,3 12,2 24,5 36,9 32,8 63,44 94,106 30,63 21,104 -27,125 -12,0 -32,11 -61,33 -28,23 -58,49 -91,82l-6 206c32,-12 56,-22 70,-30 15,-8 26,-15 34,-19 49,-40 78,-66 91,-75 12,-11 32,-7 61,9 20,12 33,20 40,24 6,4 19,14 40,30 32,-113 69,-248 109,-406 40,-158 61,-245 61,-261zm-806 570l0 -91c-16,0 -43,6 -79,18 -36,12 -61,20 -73,24 -28,8 -57,11 -88,6 -30,-4 -54,-13 -73,-27 -18,-14 -22,-32 -12,-54 11,-23 36,-46 76,-70 20,-16 53,-36 97,-61 44,-24 95,-46 152,-66 -4,-36 -6,-73 -6,-109 0,-36 0,-81 0,-133 -121,32 -231,72 -328,118 -97,47 -174,94 -231,142 16,65 52,158 106,279 55,121 100,225 137,310 57,-53 112,-102 167,-149 55,-46 107,-92 155,-137zm-6 267c0,0 -1,-17 -3,-51 -2,-35 2,-62 10,-82 -28,12 -58,31 -88,55 -31,24 -59,48 -85,70 -27,23 -48,40 -64,55 -16,14 -18,21 -6,21 20,0 55,-8 106,-24 50,-16 94,-31 130,-43zm-1189 -1674c-117,24 -244,76 -382,155 -137,78 -275,167 -412,264l-36 -61c93,-81 188,-169 285,-264 97,-95 137,-147 121,-155 -93,-77 -143,-146 -151,-206 -8,-61 44,-95 158,-103 32,-4 79,10 142,42 62,32 122,73 179,121 57,49 96,92 118,131 23,38 15,63 -21,75zm109 1013c-65,105 -133,203 -203,294 -71,91 -146,180 -227,269 -40,170 -51,423 -31,759 20,336 32,543 36,624 12,101 -3,180 -45,234 -43,55 -86,60 -130,15 -69,-93 -153,-247 -252,-464 -99,-216 -132,-395 -99,-537 20,40 51,105 94,194 42,89 70,144 82,164 12,20 21,33 27,40 6,6 17,17 33,33 -12,-101 -17,-246 -15,-434 2,-188 3,-307 3,-355 -137,117 -256,218 -355,300 -99,83 -192,171 -281,264 -16,8 -42,-1 -76,-27 -35,-27 -68,-62 -100,-107 -32,-44 -53,-87 -64,-130 -10,-42 -1,-74 27,-94 109,-97 214,-206 315,-328 101,-121 194,-245 279,-370 49,-77 93,-148 133,-215 40,-66 65,-110 73,-130 -24,8 -48,16 -70,24 -23,8 -53,18 -94,30 -89,28 -217,84 -383,167 -166,82 -275,128 -328,136 -20,0 -44,-9 -73,-27 -28,-19 -53,-39 -76,-61 -22,-23 -34,-44 -36,-67 -2,-22 14,-37 46,-45 49,-16 232,-97 552,-243 319,-146 512,-233 577,-261 12,-12 44,-40 97,-85 53,-44 93,-62 121,-54 49,12 119,57 212,133 93,77 125,131 97,163 -49,44 -94,96 -137,155 -42,58 -67,122 -75,191 20,-20 65,-53 133,-100 69,-46 121,-86 158,-118l54 61z"/>
  <path id="1" class="fil4" d="M15214 1992c-12,4 -89,39 -231,104 -142,65 -263,123 -364,176 -137,69 -267,139 -388,209 -121,71 -229,133 -322,185l-66 -73c44,-28 120,-71 227,-128 107,-57 187,-101 239,-133 53,-32 86,-58 100,-78 14,-20 -11,-27 -76,-19 -53,0 -101,-11 -146,-33 -44,-22 -82,-49 -112,-78 -30,-31 -47,-59 -51,-85 -4,-27 10,-44 42,-52 12,0 66,-23 161,-70 95,-47 180,-87 255,-121 74,-35 165,-67 270,-97 105,-31 206,-46 303,-46 97,24 178,71 243,140 65,69 36,135 -85,200zm-1456 -510c-182,105 -463,224 -844,355 -380,132 -608,187 -685,167l-31 -61c166,-36 377,-133 634,-291 256,-158 412,-267 464,-328 16,-24 39,-59 70,-106 30,-46 66,-64 106,-52 89,32 180,80 273,143 93,62 97,120 12,172zm1403 1644c0,61 -3,307 -9,740 -6,433 -11,671 -15,716 -16,93 -53,209 -112,349 -59,140 -111,187 -155,143 -24,-25 -88,-87 -191,-185 -104,-99 -180,-171 -228,-216 -113,-109 -214,-206 -300,-291 -87,-85 -153,-190 -197,-315 142,93 255,170 340,231 85,61 201,81 346,61 0,-85 -6,-295 -15,-631 -11,-336 -15,-514 -15,-534 0,-44 -8,-82 -24,-115 -16,-32 -38,-71 -66,-116 -12,-20 -24,-43 -36,-70 -12,-26 -19,-52 -19,-76 -170,57 -320,117 -452,182 -131,65 -221,124 -269,176 -40,44 -91,70 -149,78 -59,8 -116,-8 -173,-49 -89,-61 -150,-121 -182,-182 -32,-61 6,-95 116,-103 53,12 127,4 224,-24 97,-28 209,-67 334,-116 198,-85 513,-176 944,-273 431,-97 818,-128 1162,-91 117,32 211,74 281,125 71,51 58,108 -39,173 -24,0 -208,-15 -549,-43 -342,-28 -588,-26 -738,6 -53,8 -105,18 -158,30 -53,12 -104,28 -152,49 89,36 194,100 315,192 122,91 183,150 183,179zm-1743 -868c-20,28 -77,119 -170,270 -93,152 -154,252 -182,300 28,53 54,107 78,161 24,55 36,92 36,112 0,16 -16,226 -49,631 -32,404 -49,612 -49,624 0,32 -24,58 -73,76 -49,19 -95,5 -139,-40 -40,-49 -69,-122 -85,-221 -16,-99 -12,-197 12,-294 12,-73 23,-181 33,-324 10,-144 15,-270 15,-379 -12,12 -31,34 -55,66 -24,32 -40,55 -49,67 -32,32 -121,130 -267,294 -146,163 -226,249 -243,257 -24,8 -49,15 -73,22 -24,6 -46,6 -66,0 -20,-6 -36,-23 -49,-49 -12,-27 -19,-68 -19,-125l67 -61c20,8 34,13 42,15 8,2 16,1 24,-3 8,-4 21,-15 40,-31 18,-16 45,-42 82,-78 162,-190 315,-425 458,-707 144,-281 228,-505 252,-670 0,-101 2,-171 9,-209 6,-39 41,-50 106,-34 85,20 169,64 252,131 83,66 103,132 58,197z"/>
  <path id="2" class="fil4" d="M20133 3066c0,-162 -4,-315 -12,-461 -8,-146 -16,-255 -24,-328 -36,-4 -89,-1 -158,9 -69,11 -137,25 -206,45 12,12 32,36 61,70 28,34 49,61 61,82 24,-8 52,-7 82,3 31,10 57,26 79,49 22,22 34,49 36,78 2,31 -9,60 -33,88 -24,16 -51,37 -79,64 -28,26 -57,55 -85,87l-18 158c12,-8 27,-17 45,-27 18,-11 32,-18 40,-22 32,-32 63,-45 94,-39 30,6 57,33 82,82 8,12 15,22 19,30 4,8 10,19 18,31zm516 1027c0,81 -14,143 -40,185 -27,43 -66,53 -118,33 -57,-24 -133,-74 -228,-151 -95,-77 -156,-148 -184,-213 -20,-44 -61,-102 -121,-172 -61,-71 -108,-139 -140,-204l43 -85c44,53 87,91 127,112 40,23 85,41 133,57 0,-53 2,-117 6,-194 4,-77 6,-155 6,-236 -8,0 -15,1 -21,3 -6,2 -13,5 -21,9 -28,4 -75,16 -140,36 -65,20 -113,36 -146,49 -12,133 -25,282 -40,446 -14,164 -21,247 -21,252 0,12 -9,23 -27,31 -18,8 -38,12 -61,12 -22,0 -40,-7 -54,-21 -15,-15 -19,-32 -15,-52 0,-49 -1,-133 -3,-252 -2,-120 -2,-238 -2,-355 -8,4 -23,9 -43,15 -20,6 -32,9 -36,9 -16,8 -37,3 -64,-15 -26,-18 -51,-44 -75,-76 -24,-32 -40,-62 -49,-91 -8,-28 -2,-49 18,-61 28,-24 66,-59 112,-104 46,-44 86,-87 118,-127l0 -49c0,0 -11,1 -33,3 -23,2 -44,2 -64,2 -32,0 -58,-4 -78,-12 -20,-8 -34,-21 -40,-39 -6,-19 -3,-39 9,-61 12,-23 35,-44 67,-64 8,-12 21,-23 39,-33 19,-11 50,-30 95,-58 4,-28 2,-63 -6,-106 -8,-42 -20,-82 -36,-118 -57,20 -102,38 -137,54 -34,16 -61,31 -82,43 24,12 41,29 52,52 10,22 15,51 15,87 -8,69 -39,318 -91,747 -53,429 -81,651 -85,667 -12,20 -30,36 -54,49 -24,12 -49,18 -73,18 -24,0 -44,-9 -58,-27 -14,-19 -17,-44 -9,-76 8,-53 17,-266 27,-640 10,-374 13,-638 9,-792 -8,0 -15,-1 -21,-3 -6,-2 -15,-5 -27,-9 -61,-32 -89,-72 -85,-118 4,-47 35,-72 91,-76 20,0 50,-7 91,-21 40,-15 77,-27 109,-40 8,-8 64,-27 167,-57 104,-31 188,-54 252,-70 -24,-16 -80,-50 -167,-103 -87,-53 -140,-83 -160,-91 -40,-16 -70,-36 -88,-61 -19,-24 -24,-47 -19,-70 6,-22 23,-40 52,-52 28,-12 69,-12 121,0 36,4 76,10 118,15 43,6 88,17 137,33 65,-69 133,-156 206,-264 73,-107 125,-199 158,-276 -117,40 -247,88 -391,142 -143,55 -243,112 -300,173 -16,12 -41,41 -76,88 -34,46 -63,67 -87,63 -12,-4 -71,-17 -176,-39 -105,-23 -176,-48 -212,-76 -53,-49 -72,-91 -58,-128 15,-36 48,-53 100,-49 32,4 71,3 116,-2 44,-6 82,-18 115,-34 24,-20 189,-78 494,-172 306,-95 468,-147 489,-155 49,-28 87,-51 116,-70 28,-18 58,-23 91,-15 16,4 66,27 149,67 82,40 134,65 154,73 20,4 40,17 57,40 19,22 31,47 36,75 6,28 3,53 -9,73 -12,20 -32,36 -61,49 -57,12 -121,32 -194,61 -73,28 -115,55 -127,79 -36,49 -89,105 -158,170 -69,65 -150,135 -243,212 24,8 45,19 63,34 19,14 38,31 58,51 12,12 21,23 27,31 6,8 11,18 15,30 16,-4 29,-8 40,-12 10,-4 17,-6 21,-6 24,-16 55,-36 91,-57 36,-23 74,-23 115,-3 20,8 74,42 161,103 87,61 141,95 161,104 36,12 63,49 82,109 18,61 13,109 -15,146 -16,20 -25,66 -27,137 -2,70 -2,122 -2,154 0,12 12,226 36,640 24,415 36,644 36,688zm-1074 -942c0,-12 -1,-31 -3,-55 -2,-24 -2,-42 -2,-54 -20,24 -42,46 -64,66 -23,20 -40,35 -52,43 20,0 43,0 67,0 24,0 42,0 54,0zm-1110 -1553c20,57 23,111 9,163 -15,53 -52,75 -112,67 -49,-4 -110,-25 -185,-64 -74,-38 -130,-72 -167,-100 -49,-40 -70,-87 -66,-142 4,-54 50,-82 139,-82 57,0 129,16 218,49 89,32 144,69 164,109zm3439 3191c-69,4 -200,34 -394,91 -194,57 -352,104 -473,140 -121,36 -248,66 -379,91 -132,24 -231,28 -300,13 -93,-29 -413,-157 -959,-386 -546,-228 -852,-343 -916,-343 -73,-4 -151,15 -234,55 -83,40 -137,74 -161,103 -16,24 -38,49 -66,73 -28,24 -67,31 -116,19 -49,-16 -96,-49 -142,-100 -47,-50 -82,-106 -106,-167 -20,-40 -30,-76 -27,-106 2,-31 10,-55 24,-73 14,-19 32,-27 54,-27 23,0 46,12 70,36 36,32 101,41 194,27 93,-15 202,-40 328,-76 8,-24 35,-79 82,-164 46,-85 70,-151 70,-200 0,-65 -53,-138 -158,-222 -105,-82 -163,-138 -176,-167 -32,-61 -60,-145 -82,-252 -22,-108 -31,-177 -27,-209 0,-20 -7,-36 -22,-49 -14,-12 -29,-19 -45,-19 -20,-8 -45,-9 -76,-2 -30,6 -70,13 -118,21 -32,0 -58,-7 -78,-21 -20,-15 -35,-32 -43,-55 -8,-22 -10,-44 -6,-64 4,-20 18,-34 42,-42 53,-36 136,-79 249,-128 113,-49 188,-69 224,-61 57,8 124,36 201,85 77,49 115,97 115,146 0,28 -18,61 -54,97 -36,36 -59,71 -67,104 -16,40 -22,110 -18,209 4,99 18,159 42,179 24,24 109,87 256,188 146,101 221,192 225,273 0,57 -19,110 -57,161 -39,50 -89,108 -150,172 130,32 315,87 556,161 241,75 424,137 549,185 267,93 629,153 1086,179 457,27 801,33 1031,21l54 104z"/>
  <path class="fil5" d="M10794 2439c-65,32 -177,198 -337,497 -159,299 -268,472 -324,516 -36,4 -81,-23 -133,-79 -53,-57 -85,-125 -97,-206 -36,16 -74,32 -112,49 -38,16 -79,35 -124,55 -16,404 -42,763 -76,1076 -35,314 -90,614 -167,901l-116 0c0,-113 6,-389 19,-828 12,-438 20,-793 24,-1064 -24,4 -58,10 -100,18 -43,8 -72,15 -88,19 -8,44 -29,72 -64,82 -34,11 -79,-11 -136,-64 -40,-36 -87,-99 -140,-191 -53,-91 -106,-190 -161,-297 -54,-108 -102,-205 -142,-291 -40,-87 -74,-161 -103,-222 -24,-53 -39,-109 -43,-170 -4,-61 16,-87 61,-79 28,4 66,12 112,24 46,12 90,28 130,49 49,-20 133,-49 255,-85 121,-36 261,-74 419,-115 -12,-380 -31,-662 -55,-844 -24,-182 -66,-277 -127,-285 -32,-8 -57,-24 -73,-49 -16,-24 -22,-51 -15,-79 6,-28 23,-49 52,-63 28,-15 69,-15 121,-3 129,28 277,81 446,158 167,77 234,150 197,218 -44,73 -87,187 -128,343 -40,155 -65,312 -73,470 -4,8 -5,18 -3,30 2,12 2,24 -2,36 57,-16 119,-27 188,-33 69,-6 136,-9 201,-9 20,-4 65,-9 133,-15 69,-6 121,1 158,21 61,32 158,117 291,255 133,137 178,222 133,255zm-626 -206c0,-28 -22,-58 -64,-91 -43,-32 -125,-39 -246,-19 -20,0 -49,3 -88,10 -38,6 -66,13 -82,21 -4,24 -7,64 -9,118 -2,55 -3,96 -3,125 16,0 31,1 43,3 12,2 24,5 36,9 32,8 63,44 94,106 30,63 21,104 -27,125 -12,0 -32,11 -61,33 -28,23 -58,49 -91,82l-6 206c32,-12 56,-22 70,-30 15,-8 26,-15 34,-19 49,-40 78,-66 91,-75 12,-11 32,-7 61,9 20,12 33,20 40,24 6,4 19,14 40,30 32,-113 69,-248 109,-406 40,-158 61,-245 61,-261zm-806 570l0 -91c-16,0 -43,6 -79,18 -36,12 -61,20 -73,24 -28,8 -57,11 -88,6 -30,-4 -54,-13 -73,-27 -18,-14 -22,-32 -12,-54 11,-23 36,-46 76,-70 20,-16 53,-36 97,-61 44,-24 95,-46 152,-66 -4,-36 -6,-73 -6,-109 0,-36 0,-81 0,-133 -121,32 -231,72 -328,118 -97,47 -174,94 -231,142 16,65 52,158 106,279 55,121 100,225 137,310 57,-53 112,-102 167,-149 55,-46 107,-92 155,-137zm-6 267c0,0 -1,-17 -3,-51 -2,-35 2,-62 10,-82 -28,12 -58,31 -88,55 -31,24 -59,48 -85,70 -27,23 -48,40 -64,55 -16,14 -18,21 -6,21 20,0 55,-8 106,-24 50,-16 94,-31 130,-43zm-1189 -1674c-117,24 -244,76 -382,155 -137,78 -275,167 -412,264l-36 -61c93,-81 188,-169 285,-264 97,-95 137,-147 121,-155 -93,-77 -143,-146 -151,-206 -8,-61 44,-95 158,-103 32,-4 79,10 142,42 62,32 122,73 179,121 57,49 96,92 118,131 23,38 15,63 -21,75zm109 1013c-65,105 -133,203 -203,294 -71,91 -146,180 -227,269 -40,170 -51,423 -31,759 20,336 32,543 36,624 12,101 -3,180 -45,234 -43,55 -86,60 -130,15 -69,-93 -153,-247 -252,-464 -99,-216 -132,-395 -99,-537 20,40 51,105 94,194 42,89 70,144 82,164 12,20 21,33 27,40 6,6 17,17 33,33 -12,-101 -17,-246 -15,-434 2,-188 3,-307 3,-355 -137,117 -256,218 -355,300 -99,83 -192,171 -281,264 -16,8 -42,-1 -76,-27 -35,-27 -68,-62 -100,-107 -32,-44 -53,-87 -64,-130 -10,-42 -1,-74 27,-94 109,-97 214,-206 315,-328 101,-121 194,-245 279,-370 49,-77 93,-148 133,-215 40,-66 65,-110 73,-130 -24,8 -48,16 -70,24 -23,8 -53,18 -94,30 -89,28 -217,84 -383,167 -166,82 -275,128 -328,136 -20,0 -44,-9 -73,-27 -28,-19 -53,-39 -76,-61 -22,-23 -34,-44 -36,-67 -2,-22 14,-37 46,-45 49,-16 232,-97 552,-243 319,-146 512,-233 577,-261 12,-12 44,-40 97,-85 53,-44 93,-62 121,-54 49,12 119,57 212,133 93,77 125,131 97,163 -49,44 -94,96 -137,155 -42,58 -67,122 -75,191 20,-20 65,-53 133,-100 69,-46 121,-86 158,-118l54 61z"/>
  <path id="1" class="fil5" d="M15076 1893c-12,4 -89,39 -231,104 -142,65 -263,123 -364,176 -137,69 -267,139 -388,209 -121,71 -229,133 -322,185l-66 -73c44,-28 120,-71 227,-128 107,-57 187,-101 239,-133 53,-32 86,-58 100,-78 14,-20 -11,-27 -76,-19 -53,0 -101,-11 -146,-33 -44,-22 -82,-49 -112,-78 -30,-31 -47,-59 -51,-85 -4,-27 10,-44 42,-52 12,0 66,-23 161,-70 95,-47 180,-87 255,-121 74,-35 165,-67 270,-97 105,-31 206,-46 303,-46 97,24 178,71 243,140 65,69 36,135 -85,200zm-1456 -510c-182,105 -463,224 -844,355 -380,132 -608,187 -685,167l-31 -61c166,-36 377,-133 634,-291 256,-158 412,-267 464,-328 16,-24 39,-59 70,-106 30,-46 66,-64 106,-52 89,32 180,80 273,143 93,62 97,120 12,172zm1403 1644c0,61 -3,307 -9,740 -6,433 -11,671 -15,716 -16,93 -53,209 -112,349 -59,140 -111,187 -155,143 -24,-25 -88,-87 -191,-185 -104,-99 -180,-171 -228,-216 -113,-109 -214,-206 -300,-291 -87,-85 -153,-190 -197,-315 142,93 255,170 340,231 85,61 201,81 346,61 0,-85 -6,-295 -15,-631 -11,-336 -15,-514 -15,-534 0,-44 -8,-82 -24,-115 -16,-32 -38,-71 -66,-116 -12,-20 -24,-43 -36,-70 -12,-26 -19,-52 -19,-76 -170,57 -320,117 -452,182 -131,65 -221,124 -269,176 -40,44 -91,70 -149,78 -59,8 -116,-8 -173,-49 -89,-61 -150,-121 -182,-182 -32,-61 6,-95 116,-103 53,12 127,4 224,-24 97,-28 209,-67 334,-116 198,-85 513,-176 944,-273 431,-97 818,-128 1162,-91 117,32 211,74 281,125 71,51 58,108 -39,173 -24,0 -208,-15 -549,-43 -342,-28 -588,-26 -738,6 -53,8 -105,18 -158,30 -53,12 -104,28 -152,49 89,36 194,100 315,192 122,91 183,150 183,179zm-1743 -868c-20,28 -77,119 -170,270 -93,152 -154,252 -182,300 28,53 54,107 78,161 24,55 36,92 36,112 0,16 -16,226 -49,631 -32,404 -49,612 -49,624 0,32 -24,58 -73,76 -49,19 -95,5 -139,-40 -40,-49 -69,-122 -85,-221 -16,-99 -12,-197 12,-294 12,-73 23,-181 33,-324 10,-144 15,-270 15,-379 -12,12 -31,34 -55,66 -24,32 -40,55 -49,67 -32,32 -121,130 -267,294 -146,163 -226,249 -243,257 -24,8 -49,15 -73,22 -24,6 -46,6 -66,0 -20,-6 -36,-23 -49,-49 -12,-27 -19,-68 -19,-125l67 -61c20,8 34,13 42,15 8,2 16,1 24,-3 8,-4 21,-15 40,-31 18,-16 45,-42 82,-78 162,-190 315,-425 458,-707 144,-281 228,-505 252,-670 0,-101 2,-171 9,-209 6,-39 41,-50 106,-34 85,20 169,64 252,131 83,66 103,132 58,197z"/>
  <path id="2" class="fil5" d="M19995 2967c0,-162 -4,-315 -12,-461 -8,-146 -16,-255 -24,-328 -36,-4 -89,-1 -158,9 -69,11 -137,25 -206,45 12,12 32,36 61,70 28,34 49,61 61,82 24,-8 52,-7 82,3 31,10 57,26 79,49 22,22 34,49 36,78 2,31 -9,60 -33,88 -24,16 -51,37 -79,64 -28,26 -57,55 -85,87l-18 158c12,-8 27,-17 45,-27 18,-11 32,-18 40,-22 32,-32 63,-45 94,-39 30,6 57,33 82,82 8,12 15,22 19,30 4,8 10,19 18,31zm516 1027c0,81 -14,143 -40,185 -27,43 -66,53 -118,33 -57,-24 -133,-74 -228,-151 -95,-77 -156,-148 -184,-213 -20,-44 -61,-102 -121,-172 -61,-71 -108,-139 -140,-204l43 -85c44,53 87,91 127,112 40,23 85,41 133,57 0,-53 2,-117 6,-194 4,-77 6,-155 6,-236 -8,0 -15,1 -21,3 -6,2 -13,5 -21,9 -28,4 -75,16 -140,36 -65,20 -113,36 -146,49 -12,133 -25,282 -40,446 -14,164 -21,247 -21,252 0,12 -9,23 -27,31 -18,8 -38,12 -61,12 -22,0 -40,-7 -54,-21 -15,-15 -19,-32 -15,-52 0,-49 -1,-133 -3,-252 -2,-120 -2,-238 -2,-355 -8,4 -23,9 -43,15 -20,6 -32,9 -36,9 -16,8 -37,3 -64,-15 -26,-18 -51,-44 -75,-76 -24,-32 -40,-62 -49,-91 -8,-28 -2,-49 18,-61 28,-24 66,-59 112,-104 46,-44 86,-87 118,-127l0 -49c0,0 -11,1 -33,3 -23,2 -44,2 -64,2 -32,0 -58,-4 -78,-12 -20,-8 -34,-21 -40,-39 -6,-19 -3,-39 9,-61 12,-23 35,-44 67,-64 8,-12 21,-23 39,-33 19,-11 50,-30 95,-58 4,-28 2,-63 -6,-106 -8,-42 -20,-82 -36,-118 -57,20 -102,38 -137,54 -34,16 -61,31 -82,43 24,12 41,29 52,52 10,22 15,51 15,87 -8,69 -39,318 -91,747 -53,429 -81,651 -85,667 -12,20 -30,36 -54,49 -24,12 -49,18 -73,18 -24,0 -44,-9 -58,-27 -14,-19 -17,-44 -9,-76 8,-53 17,-266 27,-640 10,-374 13,-638 9,-792 -8,0 -15,-1 -21,-3 -6,-2 -15,-5 -27,-9 -61,-32 -89,-72 -85,-118 4,-47 35,-72 91,-76 20,0 50,-7 91,-21 40,-15 77,-27 109,-40 8,-8 64,-27 167,-57 104,-31 188,-54 252,-70 -24,-16 -80,-50 -167,-103 -87,-53 -140,-83 -160,-91 -40,-16 -70,-36 -88,-61 -19,-24 -24,-47 -19,-70 6,-22 23,-40 52,-52 28,-12 69,-12 121,0 36,4 76,10 118,15 43,6 88,17 137,33 65,-69 133,-156 206,-264 73,-107 125,-199 158,-276 -117,40 -247,88 -391,142 -143,55 -243,112 -300,173 -16,12 -41,41 -76,88 -34,46 -63,67 -87,63 -12,-4 -71,-17 -176,-39 -105,-23 -176,-48 -212,-76 -53,-49 -72,-91 -58,-128 15,-36 48,-53 100,-49 32,4 71,3 116,-2 44,-6 82,-18 115,-34 24,-20 189,-78 494,-172 306,-95 468,-147 489,-155 49,-28 87,-51 116,-70 28,-18 58,-23 91,-15 16,4 66,27 149,67 82,40 134,65 154,73 20,4 40,17 57,40 19,22 31,47 36,75 6,28 3,53 -9,73 -12,20 -32,36 -61,49 -57,12 -121,32 -194,61 -73,28 -115,55 -127,79 -36,49 -89,105 -158,170 -69,65 -150,135 -243,212 24,8 45,19 63,34 19,14 38,31 58,51 12,12 21,23 27,31 6,8 11,18 15,30 16,-4 29,-8 40,-12 10,-4 17,-6 21,-6 24,-16 55,-36 91,-57 36,-23 74,-23 115,-3 20,8 74,42 161,103 87,61 141,95 161,104 36,12 63,49 82,109 18,61 13,109 -15,146 -16,20 -25,66 -27,137 -2,70 -2,122 -2,154 0,12 12,226 36,640 24,415 36,644 36,688zm-1074 -942c0,-12 -1,-31 -3,-55 -2,-24 -2,-42 -2,-54 -20,24 -42,46 -64,66 -23,20 -40,35 -52,43 20,0 43,0 67,0 24,0 42,0 54,0zm-1110 -1553c20,57 23,111 9,163 -15,53 -52,75 -112,67 -49,-4 -110,-25 -185,-64 -74,-38 -130,-72 -167,-100 -49,-40 -70,-87 -66,-142 4,-54 50,-82 139,-82 57,0 129,16 218,49 89,32 144,69 164,109zm3439 3191c-69,4 -200,34 -394,91 -194,57 -352,104 -473,140 -121,36 -248,66 -379,91 -132,24 -231,28 -300,13 -93,-29 -413,-157 -959,-386 -546,-228 -852,-343 -916,-343 -73,-4 -151,15 -234,55 -83,40 -137,74 -161,103 -16,24 -38,49 -66,73 -28,24 -67,31 -116,19 -49,-16 -96,-49 -142,-100 -47,-50 -82,-106 -106,-167 -20,-40 -30,-76 -27,-106 2,-31 10,-55 24,-73 14,-19 32,-27 54,-27 23,0 46,12 70,36 36,32 101,41 194,27 93,-15 202,-40 328,-76 8,-24 35,-79 82,-164 46,-85 70,-151 70,-200 0,-65 -53,-138 -158,-222 -105,-82 -163,-138 -176,-167 -32,-61 -60,-145 -82,-252 -22,-108 -31,-177 -27,-209 0,-20 -7,-36 -22,-49 -14,-12 -29,-19 -45,-19 -20,-8 -45,-9 -76,-2 -30,6 -70,13 -118,21 -32,0 -58,-7 -78,-21 -20,-15 -35,-32 -43,-55 -8,-22 -10,-44 -6,-64 4,-20 18,-34 42,-42 53,-36 136,-79 249,-128 113,-49 188,-69 224,-61 57,8 124,36 201,85 77,49 115,97 115,146 0,28 -18,61 -54,97 -36,36 -59,71 -67,104 -16,40 -22,110 -18,209 4,99 18,159 42,179 24,24 109,87 256,188 146,101 221,192 225,273 0,57 -19,110 -57,161 -39,50 -89,108 -150,172 130,32 315,87 556,161 241,75 424,137 549,185 267,93 629,153 1086,179 457,27 801,33 1031,21l54 104z"/>
  <path class="fil5" d="M1101 5971c-1,3 -2,5 -4,7 -2,2 -4,3 -8,4 -3,1 -7,2 -11,2 -4,0 -9,1 -14,1 -5,0 -10,0 -14,-1 -4,0 -8,-1 -11,-2 -3,-1 -6,-2 -8,-4 -2,-2 -3,-4 -4,-7l-138 -506 -1 0 -126 506c-1,3 -2,5 -3,7 -2,2 -4,3 -7,4 -3,1 -6,2 -10,2 -4,0 -9,1 -15,1 -6,0 -11,0 -16,-1 -4,0 -8,-1 -11,-2 -3,-1 -6,-2 -8,-4 -2,-2 -3,-4 -4,-7l-165 -586c-2,-5 -2,-9 -2,-12 0,-3 1,-5 3,-7 2,-1 5,-3 9,-3 4,0 10,-1 16,-1 7,0 12,0 16,1 4,0 7,1 9,2 2,1 4,2 4,4 1,2 1,4 2,6l146 541 0 0 134 -541c0,-2 1,-4 2,-6 1,-2 2,-3 5,-4 2,-1 5,-2 9,-2 4,0 10,-1 16,-1 5,0 9,0 12,1 3,0 6,1 8,2 2,1 3,2 4,4 1,2 2,4 2,6l147 541 1 0 142 -541c1,-2 1,-4 2,-6 1,-2 2,-3 4,-4 2,-1 5,-2 9,-2 4,0 9,-1 15,-1 7,0 12,0 16,1 4,1 7,2 9,3 2,2 3,4 3,7 0,3 0,7 -2,12l-165 586z"/>
  <path id="1" class="fil5" d="M1518 5972c0,2 0,4 -1,5 -1,2 -2,3 -4,4 -2,1 -5,2 -8,2 -4,1 -8,1 -13,1 -5,0 -10,0 -13,-1 -4,-1 -6,-1 -9,-2 -2,-1 -4,-2 -4,-4 -1,-2 -1,-3 -1,-5l0 -597c0,-2 0,-4 2,-5 1,-2 3,-3 5,-4 2,-1 5,-2 9,-2 3,-1 8,-1 12,-1 5,0 10,0 13,1 4,1 6,1 8,2 2,1 4,2 4,4 1,2 1,3 1,5l0 597z"/>
  <path id="2" class="fil5" d="M2061 5392c0,4 0,8 -1,11 -1,3 -2,6 -3,8 -1,2 -3,4 -5,5 -2,1 -4,2 -6,2l-225 0 0 234 214 0c2,0 4,0 6,1 2,1 3,2 5,4 1,2 2,4 3,8 1,3 1,7 1,12 0,4 0,8 -1,11 -1,3 -2,6 -3,8 -1,2 -3,4 -5,5 -2,1 -4,2 -6,2l-214 0 0 271c0,2 0,4 -1,5 -1,2 -2,3 -4,4 -2,1 -5,2 -8,2 -4,1 -8,1 -13,1 -5,0 -10,0 -13,-1 -4,-1 -6,-1 -9,-2 -2,-1 -4,-2 -4,-4 -1,-2 -1,-3 -1,-5l0 -577c0,-12 3,-19 9,-24 6,-4 11,-7 17,-7l255 0c2,0 4,0 6,2 2,1 3,3 5,5 1,2 2,5 3,8 1,3 1,7 1,12z"/>
  <path id="3" class="fil5" d="M2323 5972c0,2 0,4 -1,5 -1,2 -2,3 -4,4 -2,1 -5,2 -8,2 -4,1 -8,1 -13,1 -5,0 -10,0 -13,-1 -4,-1 -6,-1 -9,-2 -2,-1 -4,-2 -4,-4 -1,-2 -1,-3 -1,-5l0 -597c0,-2 0,-4 2,-5 1,-2 3,-3 5,-4 2,-1 5,-2 9,-2 3,-1 8,-1 12,-1 5,0 10,0 13,1 4,1 6,1 8,2 2,1 4,2 4,4 1,2 1,3 1,5l0 597z"/>
  <path id="4" class="fil5" d="M3468 5938c0,19 -3,31 -9,37 -6,6 -16,9 -31,9 -14,0 -24,-3 -30,-9 -6,-6 -8,-18 -8,-37 0,-19 3,-31 9,-37 6,-6 16,-9 31,-9 14,0 24,3 30,9 6,6 8,18 8,37z"/>
  <path id="5" class="fil5" d="M3943 5907c0,4 0,7 0,10 0,3 -1,6 -1,8 -1,2 -1,4 -2,6 -1,2 -4,5 -7,9 -4,4 -10,9 -20,16 -9,7 -20,12 -31,17 -11,5 -24,9 -37,12 -13,3 -27,5 -41,5 -28,0 -53,-5 -75,-15 -22,-10 -40,-25 -55,-44 -15,-19 -26,-43 -33,-72 -8,-28 -12,-61 -12,-98 0,-42 5,-78 14,-108 10,-30 22,-54 39,-73 17,-19 36,-33 58,-42 22,-9 46,-13 71,-13 13,0 26,1 39,4 12,3 24,6 34,11 10,4 20,9 28,15 8,6 14,11 18,14 4,4 6,7 8,9 1,2 2,4 3,7 1,2 1,5 2,8 0,3 0,7 0,11 0,9 -1,16 -4,19 -2,4 -5,6 -8,6 -4,0 -9,-3 -15,-9 -6,-6 -14,-12 -24,-19 -10,-7 -21,-13 -35,-19 -14,-6 -30,-9 -49,-9 -39,0 -69,16 -90,48 -21,32 -32,77 -32,137 0,30 3,57 9,79 6,23 14,42 24,57 11,15 24,26 39,34 15,7 33,11 52,11 18,0 34,-3 48,-9 14,-6 26,-13 36,-20 10,-7 19,-14 25,-20 7,-6 12,-9 15,-9 2,0 3,0 5,2 1,1 2,3 3,5 1,2 2,5 2,9 0,3 1,7 1,12z"/>
  <path id="6" class="fil5" d="M4423 5972c0,2 0,4 -1,5 -1,2 -2,3 -4,4 -2,1 -5,2 -8,2 -4,1 -8,1 -13,1 -6,0 -10,0 -13,-1 -3,-1 -6,-1 -8,-2 -2,-1 -3,-2 -4,-4 -1,-2 -1,-3 -1,-5l0 -256c0,-27 -2,-48 -6,-65 -4,-17 -10,-31 -18,-43 -8,-12 -18,-21 -30,-28 -12,-7 -26,-10 -43,-10 -21,0 -41,8 -62,23 -21,15 -42,38 -65,69l0 309c0,2 0,4 -1,5 -1,2 -2,3 -4,4 -2,1 -5,2 -8,2 -4,1 -8,1 -13,1 -5,0 -9,0 -13,-1 -3,-1 -6,-1 -8,-2 -2,-1 -4,-2 -4,-4 -1,-2 -1,-3 -1,-5l0 -431c0,-2 0,-4 1,-5 1,-2 2,-3 4,-4 2,-1 5,-2 8,-2 3,0 7,-1 12,-1 5,0 9,0 13,1 3,0 6,1 8,2 2,1 3,2 4,4 1,2 1,3 1,5l0 61c23,-28 46,-48 69,-60 23,-13 45,-19 67,-19 27,0 49,5 67,14 18,10 33,22 44,39 11,16 19,35 24,57 5,22 7,48 7,78l0 261z"/>
  <path id="7" class="fil5" d="M2827 5724c0,39 -3,74 -9,106 -6,32 -15,60 -29,83 -13,23 -31,42 -53,55 -22,13 -48,20 -80,20 -29,0 -54,-6 -74,-17 -20,-11 -37,-28 -49,-50 -13,-22 -22,-50 -27,-82 -6,-33 -8,-70 -8,-113 0,-38 3,-74 9,-106 6,-32 15,-60 29,-84 13,-23 31,-42 52,-55 22,-13 48,-20 80,-20 29,0 54,6 74,17 20,11 37,28 50,50 13,22 22,50 28,82 6,33 8,70 8,113zm-48 4c0,-26 -1,-50 -3,-71 -2,-21 -5,-40 -9,-57 -4,-17 -9,-31 -15,-44 -6,-12 -13,-22 -22,-30 -9,-8 -18,-14 -29,-18 -11,-4 -23,-6 -37,-6 -25,0 -45,6 -60,18 -15,12 -27,29 -36,49 -9,20 -14,44 -17,70 -3,26 -4,53 -4,81 0,39 2,73 6,101 4,28 11,52 20,70 9,18 21,32 35,41 14,9 32,13 53,13 16,0 31,-3 43,-8 12,-6 23,-13 32,-23 9,-10 16,-22 22,-36 6,-14 10,-29 13,-45 3,-16 5,-33 7,-51 1,-18 2,-36 2,-55z"/>
  <path id="8" class="fil5" d="M3236 5962c0,4 0,7 -1,9 -1,3 -2,5 -3,6 -1,1 -3,3 -4,3 -2,1 -3,1 -5,1l-246 0c-2,0 -3,0 -4,-1 -1,-1 -3,-2 -4,-3 -1,-2 -2,-4 -3,-6 -1,-3 -1,-6 -1,-9 0,-3 0,-6 1,-9 1,-3 2,-5 3,-7 1,-2 2,-3 4,-4 1,-1 3,-1 5,-1l108 0 0 -422 -103 67c-4,3 -7,4 -10,5 -2,0 -4,0 -6,-1 -1,-1 -2,-4 -3,-7 -1,-3 -1,-7 -1,-11 0,-3 0,-6 0,-9 0,-3 1,-5 2,-7 1,-2 2,-3 3,-5 1,-1 3,-3 4,-4l116 -79c1,-1 2,-1 3,-1 1,-1 3,-1 4,-1 2,0 4,-1 6,-1 2,0 4,0 7,0 4,0 8,0 11,1 3,1 5,1 7,2 2,1 3,2 4,3 1,1 1,3 1,4l0 466 93 0c2,0 3,0 5,1 2,1 3,2 4,4 1,2 2,4 3,7 1,3 1,6 1,9z"/>
 </g>
</svg>
